<svg id="Camada_1" data-name="Camada 1" xmlns="http://www.w3.org/2000/svg" xmlns:xlink="http://www.w3.org/1999/xlink" viewBox="0 0 1392.54 1368.58"><defs><linearGradient id="Gradiente_sem_nome_19" x1="718.98" y1="25.27" x2="718.98" y2="1393.85" gradientUnits="userSpaceOnUse"><stop offset="0.26" stop-color="#fff"/><stop offset="0.44" stop-color="#fff"/><stop offset="0.67" stop-color="#fff"/><stop offset="0.89" stop-color="#fff"/></linearGradient></defs><title>logosvg</title><path d="M1415.25,1393.38a12.25,12.25,0,0,1-2,.46H1174.73c-5.23-5-10.37-9.82-15.49-14.7q-9.79-9.37-19.55-18.77-18.09-17.36-36.19-34.71-13.05-12.5-26.13-25c-6.21-5.92-12.45-11.82-18.62-17.78-1.49-1.44-3.17-2.75-3.82-4.93-.23-.77-1.17-1.34-1.82-2q-10.2-9.58-20.42-19.17-19.12-17.89-38.29-35.77-13.71-12.78-27.44-25.54-19.34-18-38.62-36.09c-.54-.51-1.28-1-1.51-1.64-1-2.71-3.23-4.29-5.17-6.15q-14-13.46-28-26.89c-6.31-6-12.65-12-19-18.09q-17.94-17.19-35.86-34.4-12.72-12.19-25.48-24.34-18.44-17.65-36.84-35.33c-8.7-8.33-17.44-16.62-26.14-25q-14-13.42-28-26.9-12.89-12.35-25.8-24.66-18.27-17.49-36.52-35-13-12.5-26.13-25-14.19-13.59-28.36-27.21c-6.86-6.56-13.75-13.08-20.61-19.63a15.09,15.09,0,0,1-3.86-4.56,8.91,8.91,0,0,1,1.84-.55c1.36-.08,2.71-.06,4.07-.06H817a8.68,8.68,0,0,0,1.35,0c3.28-.44,5.66,1,8,3.22,9.36,9.17,18.88,18.17,28.34,27.23q17.61,16.89,35.21,33.76,13.38,12.81,26.79,25.59,17.79,17,35.54,34.07,13.23,12.66,26.47,25.27,17.77,17,35.54,34.08,8.49,8.11,17,16.22l22.52,21.56c1.08,1,2.23,2,3.21,2.83,1.86-.12,2.55-1.43,3.36-2.44,6.23-7.74,12.55-15.41,18.57-23.32,8.12-10.66,15.68-21.72,22.85-33.05a524.41,524.41,0,0,0,28.18-50.42,511.79,511.79,0,0,0,22.84-54.51,522.47,522.47,0,0,0,20.11-74q3.66-18.84,6-37.89c1-7.91,1.49-15.88,2.19-23.82a442.37,442.37,0,0,0,1.5-49.65c-.24-9.62-.84-19.25-1.48-28.86-.55-8.1-1.14-16.22-2.2-24.28-1.42-10.88-3.21-21.72-5-32.55a443.22,443.22,0,0,0-10.94-47.46A513.36,513.36,0,0,0,1050,360.65a504.77,504.77,0,0,0-41.36-41Q992.92,305.73,976,293.22A502.37,502.37,0,0,0,929.3,262.4q-19.74-11.44-40.42-21c-13-6-26.21-11.38-39.67-16.24a499.94,499.94,0,0,0-51-15.23c-12.87-3.16-25.91-5.31-39-7.55-11-1.88-22.07-3-33.15-4-7.33-.69-14.72-.86-22.09-1.18-5.11-.23-10.24-.51-15.35-.45-12,.15-24.09.16-36.11,1.24-8.24.74-16.5,1.24-24.73,2.13-6.13.66-12.22,1.65-18.3,2.69-8.89,1.53-17.81,3-26.61,4.94-13.51,3-26.91,6.42-40.13,10.55q-17,5.31-33.65,11.76a472.77,472.77,0,0,0-49.62,22.76q-19.17,10.13-37.37,21.94a503.11,503.11,0,0,0-97,82A516,516,0,0,0,215.86,542.54a521.44,521.44,0,0,0-17.6,67.64c-2.5,13.15-4.43,26.4-5.88,39.72A548.25,548.25,0,0,0,189,711.19c0,12.36.5,24.69,1.6,37,.91,10.19,1.72,20.4,3,30.54a502.48,502.48,0,0,0,10.14,54.55A518.47,518.47,0,0,0,287.44,1015q12,16.65,25.42,32.28,15.56,18.23,32.75,34.91,14.11,13.68,29.26,26.21c10.9,9,22.21,17.54,33.76,25.72q6.27,4.44,12.75,8.55c10.56,6.69,21.21,13.2,32.2,19.16a495.91,495.91,0,0,0,47.21,22.6c13.36,5.51,26.93,10.37,40.72,14.73a486,486,0,0,0,61.34,14.91,414.15,414.15,0,0,0,41.63,5.36,481.79,481.79,0,0,0,55.07,1.44c10.23-.41,20.46-.76,30.65-1.8a4.77,4.77,0,0,1,4,1.47c2.62,2.48,5.29,4.92,7.93,7.39q17.64,16.51,35.27,33c9.36,8.73,18.77,17.41,28.12,26.14q17.83,16.65,35.62,33.33,13.54,12.65,27.12,25.24,7.61,7.08,15.17,14.19a8.3,8.3,0,0,1,.9,1.33,14.89,14.89,0,0,1-2,1c-8.64,2.6-17.28,5.2-25.94,7.74-14.88,4.35-30,7.67-45.21,10.72-9.29,1.87-18.68,3.23-28,4.85-10.24,1.78-20.55,3-30.89,3.9-9.6.84-19.19,1.85-28.81,2.34-15.63.81-31.29,1.5-47,1-14-.46-28-.86-42-1.92s-27.88-2.56-41.73-4.53c-13.55-1.92-27-4.37-40.44-7.16q-28.5-5.94-56.35-14.55-21.15-6.49-41.8-14.44-26.34-10.12-51.72-22.5-20.9-10.2-41-21.85c-16.15-9.39-31.95-19.32-47.19-30.11-10.19-7.22-20.27-14.63-30.11-22.32q-24.2-18.93-46.49-40.12-17.05-16.17-33-33.42-21.25-23.11-40.32-48.09-15.34-20.13-29.2-41.29-15.32-23.46-28.65-48.1A689.5,689.5,0,0,1,44.92,885.61c-5.51-21.28-10.05-42.77-13.44-64.48-1.95-12.48-3.33-25.06-4.86-37.6-1.41-11.51-2.16-23.07-2.82-34.64-1.13-19.72-1.35-39.43-.79-59.16.27-9.48.58-19,1.19-28.43.56-8.7,1.47-17.39,2.37-26.07.82-7.78,1.67-15.56,2.82-23.3,1.79-12,3.63-24.09,5.85-36.07,3.71-20,8.49-39.7,14-59.25q9.43-33.24,22.11-65.38a683.34,683.34,0,0,1,32.74-70.87q13.38-25.11,28.8-49,16-24.9,34.11-48.32,16.32-21.09,34.24-40.84c10.33-11.37,20.93-22.49,32.08-33,9.17-8.71,18.62-17.13,28.08-25.52,10.6-9.39,21.73-18.13,33-26.68,7.19-5.45,14.54-10.72,21.95-15.88,14.71-10.23,29.86-19.78,45.35-28.8,6.5-3.78,13.14-7.32,19.76-10.9,13.91-7.52,28.13-14.41,42.58-20.8q22.71-10,46.13-18.33c15.47-5.44,31.12-10.26,46.93-14.62,14.51-4,29.18-7.3,43.92-10.24,10.17-2,20.46-3.45,30.7-5.1q7.35-1.17,14.72-2.17c3.73-.51,7.46-1,11.21-1.3q14.17-1.15,28.36-2.13c14.57-1,29.17-1.41,43.78-1.37q14.89,0,29.8.88c10.06.56,20.11,1.45,30.15,2.4,8.23.77,16.47,1.63,24.65,2.82,14.13,2.07,28.28,4.13,42.23,7.21,10.43,2.31,20.86,4.61,31.19,7.27q24.25,6.24,47.94,14.42C909,64.83,922.13,69.74,935,75.21Q951,82,966.68,89.5c14.39,6.89,28.48,14.39,42.29,22.37q24.06,13.91,46.88,29.76,25.05,17.42,48.4,37.05,25.26,21.23,48.34,44.84a683.1,683.1,0,0,1,97.18,125.94,692.12,692.12,0,0,1,57.43,120.92,701.84,701.84,0,0,1,28.32,102.1c2.69,13.57,5,27.21,6.71,41,1.09,9,2.25,17.91,3.24,26.88.55,4.94.85,9.9,1.19,14.86.53,7.65,1,15.32,1.49,23,.13,2.1.21,4.21.21,6.32,0,15.51.21,31,0,46.53-.13,9.33-.89,18.64-1.44,28q-.48,8.12-1.22,16.21c-.57,6.29-1.14,12.59-2,18.85q-1.92,14.55-4.2,29c-3.28,21.12-7.78,42-13.12,62.69a689.23,689.23,0,0,1-69.12,170.12q-16.5,28.84-35.67,56c-10,14.14-20.48,27.91-31.63,41.18-2.42,2.88-4.87,5.74-7.27,8.63-1,1.15-1.79,2.37-2.81,3.72a23.75,23.75,0,0,0,1.76,2.14q16,15.33,32,30.62,21.2,20.33,42.38,40.66,17.79,17,35.62,34,21.06,20.14,42.05,40.34c3.8,3.65,7.66,7.24,11.46,10.9,2.05,2,4,4.07,6,6.09q8,8,16,15.93,13.35,13.17,26.73,26.29,8.7,8.55,17.42,17.07C1412.48,1390.56,1413.63,1391.74,1415.25,1393.38Z" transform="translate(-22.71 -25.27)" style="fill:url(#Gradiente_sem_nome_19)"/></svg>